<svg width="20" height="20" viewBox="0 0 20 20" fill="none" xmlns="http://www.w3.org/2000/svg">
<path d="M11.6666 9.16797H6.66659M8.33325 12.5013H6.66659M13.3333 5.83464H6.66659M16.6666 5.66797V14.3346C16.6666 15.7348 16.6666 16.4348 16.3941 16.9696C16.1544 17.44 15.772 17.8225 15.3016 18.0622C14.7668 18.3346 14.0667 18.3346 12.6666 18.3346H7.33325C5.93312 18.3346 5.23306 18.3346 4.69828 18.0622C4.22787 17.8225 3.84542 17.44 3.60574 16.9696C3.33325 16.4348 3.33325 15.7348 3.33325 14.3346V5.66797C3.33325 4.26784 3.33325 3.56777 3.60574 3.03299C3.84542 2.56259 4.22787 2.18014 4.69828 1.94045C5.23306 1.66797 5.93312 1.66797 7.33325 1.66797H12.6666C14.0667 1.66797 14.7668 1.66797 15.3016 1.94045C15.772 2.18014 16.1544 2.56259 16.3941 3.03299C16.6666 3.56777 16.6666 4.26784 16.6666 5.66797Z" stroke="#8E959F" stroke-width="1.66667" stroke-linecap="round" stroke-linejoin="round"/>
</svg>
