<svg width="208" height="32" viewBox="0 0 208 32" fill="none" xmlns="http://www.w3.org/2000/svg">
<g clip-path="url(#clip0_682_2181)">
<path d="M0 3.30323C0 1.47891 1.43269 0 3.2 0H5.48571V11.3253H0.914285C0.409339 11.3253 0 10.9028 0 10.3815V3.30323Z" fill="#1766C0"/>
<path d="M19.2002 0C23.7447 0 27.4297 3.80287 27.4297 8.49396V31.1452H10.9717C7.94218 31.145 5.48633 28.6091 5.48633 25.4818V2.83266C5.48627 2.8109 5.48106 1.88367 5.0293 1.41734C4.1253 0.484253 3.13342 0.0124605 3.11133 0.00201612H5.48633V0H19.2002Z" fill="#2AB7F6"/>
<path d="M10.0566 6.60784C10.0566 6.08661 10.466 5.66406 10.9709 5.66406H20.1138C20.6187 5.66406 21.0281 6.08661 21.0281 6.60784C21.0281 7.12907 20.6187 7.55162 20.1138 7.55162H10.9709C10.466 7.55162 10.0566 7.12907 10.0566 6.60784Z" fill="#F7F7F8"/>
<path d="M10.0566 16.0454C10.0566 15.5241 10.466 15.1016 10.9709 15.1016H21.9424C22.4473 15.1016 22.8566 15.5241 22.8566 16.0454C22.8566 16.5665 22.4473 16.9892 21.9424 16.9892H10.9709C10.466 16.9892 10.0566 16.5665 10.0566 16.0454Z" fill="#F7F7F8"/>
<path d="M10.0566 11.3266C10.0566 10.8054 10.466 10.3828 10.9709 10.3828H16.4566C16.9616 10.3828 17.3709 10.8054 17.3709 11.3266C17.3709 11.8479 16.9616 12.2704 16.4566 12.2704H10.9709C10.466 12.2704 10.0566 11.8479 10.0566 11.3266Z" fill="#F7F7F8"/>
<path d="M29.2559 20.7617C30.7707 20.7617 31.999 22.0296 31.999 23.5933V25.9522C31.999 28.8189 29.7478 31.1436 26.9707 31.1438H14.6279C14.6156 31.1438 14.603 31.142 14.5908 31.1417H10.0547C10.0547 31.1417 11.004 31.142 11.8838 30.1982C12.3237 29.7263 12.7979 28.3101 12.7979 28.3101L12.7988 28.3111V22.6488C12.7991 21.6065 13.6182 20.7617 14.6279 20.7617H29.2559Z" fill="#1566C0"/>
</g>
<g clip-path="url(#clip1_682_2181)">
<path d="M53.608 12.082C53.4955 11.7177 53.3403 11.3916 53.1424 11.1037C52.949 10.8113 52.7151 10.5617 52.4407 10.3547C52.1708 10.1478 51.8605 9.99266 51.5096 9.8892C51.1588 9.78125 50.7764 9.72727 50.3626 9.72727C49.6204 9.72727 48.9592 9.91394 48.3789 10.2873C47.7987 10.6606 47.3421 11.2094 47.0093 11.9336C46.6809 12.6533 46.5167 13.5304 46.5167 14.565C46.5167 15.6085 46.6809 16.4924 47.0093 17.2167C47.3376 17.9409 47.7942 18.4919 48.3789 18.8698C48.9637 19.2431 49.6429 19.4298 50.4166 19.4298C51.1183 19.4298 51.7255 19.2948 52.2383 19.0249C52.7556 18.7551 53.1537 18.3727 53.4325 17.8779C53.7114 17.3786 53.8509 16.7938 53.8509 16.1236L54.4176 16.2113H50.6662V14.2546H56.2731V15.9144C56.2731 17.0975 56.0212 18.1208 55.5174 18.9845C55.0136 19.8481 54.3209 20.5138 53.4393 20.9816C52.5577 21.4449 51.5456 21.6766 50.4031 21.6766C49.1301 21.6766 48.0123 21.3909 47.0497 20.8197C46.0916 20.2439 45.3427 19.4275 44.8029 18.3705C44.2677 17.3089 44 16.0493 44 14.592C44 13.4764 44.1575 12.4801 44.4723 11.603C44.7917 10.7258 45.237 9.98142 45.8083 9.36967C46.3795 8.75343 47.0497 8.28563 47.8189 7.96626C48.5881 7.6424 49.4247 7.48047 50.3289 7.48047C51.0935 7.48047 51.8065 7.59292 52.4677 7.81783C53.1289 8.03823 53.7159 8.3531 54.2287 8.76243C54.746 9.17176 55.1711 9.65755 55.5039 10.2198C55.8368 10.7821 56.0549 11.4028 56.1584 12.082H53.608Z" fill="black"/>
<path d="M63.174 21.6893C62.1349 21.6893 61.2375 21.4734 60.4818 21.0415C59.7307 20.6052 59.1527 19.989 58.7478 19.1928C58.343 18.3922 58.1406 17.4498 58.1406 16.3658C58.1406 15.2997 58.343 14.3641 58.7478 13.5589C59.1571 12.7493 59.7284 12.1195 60.4616 11.6697C61.1948 11.2154 62.0562 10.9883 63.0458 10.9883C63.6845 10.9883 64.2872 11.0917 64.854 11.2986C65.4253 11.5011 65.929 11.8159 66.3654 12.2432C66.8062 12.6706 67.1525 13.2148 67.4044 13.8761C67.6563 14.5328 67.7823 15.3154 67.7823 16.2241V16.973H59.2876V15.3267H65.441C65.4365 14.8589 65.3353 14.4428 65.1374 14.0785C64.9395 13.7096 64.6628 13.4195 64.3075 13.2081C63.9566 12.9967 63.5473 12.891 63.0795 12.891C62.5802 12.891 62.1416 13.0124 61.7638 13.2553C61.386 13.4937 61.0913 13.8086 60.8799 14.1999C60.673 14.5868 60.5673 15.0118 60.5628 15.4751V16.9123C60.5628 17.515 60.673 18.0323 60.8934 18.4641C61.1138 18.8914 61.4219 19.2198 61.8178 19.4492C62.2136 19.6741 62.6769 19.7866 63.2077 19.7866C63.563 19.7866 63.8847 19.7371 64.1725 19.6381C64.4604 19.5347 64.7101 19.384 64.9215 19.1861C65.1329 18.9882 65.2926 18.743 65.4005 18.4506L67.6811 18.707C67.5371 19.3098 67.2627 19.836 66.8579 20.2859C66.4576 20.7312 65.9448 21.0775 65.3196 21.3249C64.6943 21.5678 63.9791 21.6893 63.174 21.6893Z" fill="black"/>
<path d="M72.2902 15.4144V21.4869H69.8477V11.1232H72.1822V12.8842H72.3037C72.5421 12.304 72.9221 11.8429 73.4439 11.5011C73.9702 11.1592 74.6202 10.9883 75.3938 10.9883C76.109 10.9883 76.732 11.1412 77.2628 11.4471C77.7981 11.7529 78.2119 12.196 78.5043 12.7763C78.8012 13.3565 78.9474 14.0605 78.9429 14.8881V21.4869H76.5004V15.266C76.5004 14.5733 76.3205 14.0312 75.9606 13.6399C75.6053 13.2486 75.1127 13.0529 74.483 13.0529C74.0557 13.0529 73.6756 13.1474 73.3427 13.3363C73.0144 13.5207 72.7557 13.7883 72.5668 14.1392C72.3824 14.49 72.2902 14.9151 72.2902 15.4144Z" fill="black"/>
<path d="M86.0139 21.6893C84.9748 21.6893 84.0774 21.4734 83.3218 21.0415C82.5706 20.6052 81.9926 19.989 81.5877 19.1928C81.1829 18.3922 80.9805 17.4498 80.9805 16.3658C80.9805 15.2997 81.1829 14.3641 81.5877 13.5589C81.9971 12.7493 82.5683 12.1195 83.3015 11.6697C84.0347 11.2154 84.8961 10.9883 85.8857 10.9883C86.5244 10.9883 87.1272 11.0917 87.6939 11.2986C88.2652 11.5011 88.769 11.8159 89.2053 12.2432C89.6461 12.6706 89.9925 13.2148 90.2443 13.8761C90.4962 14.5328 90.6222 15.3154 90.6222 16.2241V16.973H82.1275V15.3267H88.2809C88.2764 14.8589 88.1752 14.4428 87.9773 14.0785C87.7794 13.7096 87.5028 13.4195 87.1474 13.2081C86.7965 12.9967 86.3872 12.891 85.9194 12.891C85.4201 12.891 84.9816 13.0124 84.6037 13.2553C84.2259 13.4937 83.9313 13.8086 83.7198 14.1999C83.5129 14.5868 83.4072 15.0118 83.4027 15.4751V16.9123C83.4027 17.515 83.5129 18.0323 83.7333 18.4641C83.9537 18.8914 84.2619 19.2198 84.6577 19.4492C85.0535 19.6741 85.5168 19.7866 86.0476 19.7866C86.403 19.7866 86.7246 19.7371 87.0125 19.6381C87.3003 19.5347 87.55 19.384 87.7614 19.1861C87.9728 18.9882 88.1325 18.743 88.2404 18.4506L90.521 18.707C90.377 19.3098 90.1027 19.836 89.6978 20.2859C89.2975 20.7312 88.7847 21.0775 88.1595 21.3249C87.5342 21.5678 86.819 21.6893 86.0139 21.6893Z" fill="black"/>
<path d="M92.6895 21.4887V11.125H95.0578V12.8523H95.1657C95.3546 12.254 95.6785 11.793 96.1373 11.4691C96.6006 11.1408 97.1291 10.9766 97.7229 10.9766C97.8578 10.9766 98.0085 10.9833 98.1749 10.9968C98.3459 11.0058 98.4876 11.0216 98.6 11.044V13.2909C98.4966 13.2549 98.3324 13.2234 98.1075 13.1964C97.8871 13.1649 97.6734 13.1492 97.4665 13.1492C97.0212 13.1492 96.6209 13.2459 96.2655 13.4393C95.9146 13.6282 95.638 13.8913 95.4356 14.2287C95.2332 14.5661 95.132 14.9552 95.132 15.396V21.4887H92.6895Z" fill="black"/>
<path d="M103.019 21.696C102.362 21.696 101.771 21.5791 101.244 21.3452C100.722 21.1068 100.309 20.7559 100.003 20.2926C99.7015 19.8293 99.5508 19.258 99.5508 18.5788C99.5508 17.9941 99.6587 17.5105 99.8746 17.1282C100.09 16.7458 100.385 16.44 100.758 16.2106C101.132 15.9812 101.552 15.808 102.02 15.691C102.493 15.5696 102.981 15.4819 103.484 15.4279C104.092 15.3649 104.584 15.3087 104.962 15.2592C105.34 15.2052 105.614 15.1243 105.785 15.0163C105.961 14.9039 106.048 14.7307 106.048 14.4968V14.4563C106.048 13.948 105.898 13.5544 105.596 13.2756C105.295 12.9967 104.861 12.8572 104.294 12.8572C103.696 12.8572 103.221 12.9877 102.87 13.2486C102.524 13.5095 102.29 13.8176 102.169 14.1729L99.8881 13.8491C100.068 13.2193 100.365 12.6931 100.779 12.2702C101.193 11.8429 101.699 11.5235 102.297 11.3121C102.895 11.0962 103.556 10.9883 104.281 10.9883C104.78 10.9883 105.277 11.0467 105.772 11.1637C106.266 11.2806 106.719 11.4741 107.128 11.744C107.537 12.0093 107.866 12.3714 108.113 12.8302C108.365 13.2891 108.491 13.8626 108.491 14.5508V21.4869H106.143V20.0632H106.062C105.913 20.3511 105.704 20.621 105.434 20.8729C105.169 21.1203 104.834 21.3204 104.429 21.4734C104.029 21.6218 103.559 21.696 103.019 21.696ZM103.653 19.9013C104.143 19.9013 104.568 19.8046 104.928 19.6111C105.288 19.4132 105.565 19.1523 105.758 18.8285C105.956 18.5046 106.055 18.1515 106.055 17.7692V16.5479C105.979 16.6109 105.848 16.6694 105.664 16.7234C105.484 16.7773 105.281 16.8246 105.056 16.865C104.832 16.9055 104.609 16.9415 104.388 16.973C104.168 17.0045 103.977 17.0315 103.815 17.054C103.451 17.1034 103.125 17.1844 102.837 17.2969C102.549 17.4093 102.322 17.5668 102.155 17.7692C101.989 17.9671 101.906 18.2235 101.906 18.5383C101.906 18.9882 102.07 19.3278 102.398 19.5572C102.726 19.7866 103.145 19.9013 103.653 19.9013Z" fill="black"/>
<path d="M116.122 11.1197V13.0089H110.164V11.1197H116.122ZM111.635 8.63672H114.077V18.3661C114.077 18.6944 114.127 18.9463 114.226 19.1217C114.329 19.2927 114.464 19.4096 114.631 19.4726C114.797 19.5356 114.982 19.5671 115.184 19.5671C115.337 19.5671 115.476 19.5558 115.602 19.5333C115.733 19.5108 115.832 19.4906 115.899 19.4726L116.311 21.382C116.18 21.427 115.994 21.4765 115.751 21.5305C115.512 21.5845 115.22 21.6159 114.874 21.6249C114.262 21.6429 113.711 21.5507 113.221 21.3483C112.73 21.1414 112.341 20.822 112.053 20.3902C111.77 19.9584 111.63 19.4186 111.635 18.7709V8.63672Z" fill="black"/>
<path d="M122.64 21.6893C121.601 21.6893 120.704 21.4734 119.948 21.0415C119.197 20.6052 118.619 19.989 118.214 19.1928C117.809 18.3922 117.607 17.4498 117.607 16.3658C117.607 15.2997 117.809 14.3641 118.214 13.5589C118.623 12.7493 119.195 12.1195 119.928 11.6697C120.661 11.2154 121.522 10.9883 122.512 10.9883C123.151 10.9883 123.754 11.0917 124.32 11.2986C124.892 11.5011 125.395 11.8159 125.832 12.2432C126.272 12.6706 126.619 13.2148 126.871 13.8761C127.123 14.5328 127.249 15.3154 127.249 16.2241V16.973H118.754V15.3267H124.907C124.903 14.8589 124.802 14.4428 124.604 14.0785C124.406 13.7096 124.129 13.4195 123.774 13.2081C123.423 12.9967 123.014 12.891 122.546 12.891C122.046 12.891 121.608 13.0124 121.23 13.2553C120.852 13.4937 120.558 13.8086 120.346 14.1999C120.139 14.5868 120.034 15.0118 120.029 15.4751V16.9123C120.029 17.515 120.139 18.0323 120.36 18.4641C120.58 18.8914 120.888 19.2198 121.284 19.4492C121.68 19.6741 122.143 19.7866 122.674 19.7866C123.029 19.7866 123.351 19.7371 123.639 19.6381C123.927 19.5347 124.176 19.384 124.388 19.1861C124.599 18.9882 124.759 18.743 124.867 18.4506L127.147 18.707C127.003 19.3098 126.729 19.836 126.324 20.2859C125.924 20.7312 125.411 21.0775 124.786 21.3249C124.161 21.5678 123.445 21.6893 122.64 21.6893Z" fill="black"/>
<path d="M129.424 21.4862V7.66797H134.606C135.667 7.66797 136.558 7.85239 137.278 8.22124C138.002 8.59008 138.548 9.10736 138.917 9.77308C139.29 10.4343 139.477 11.2057 139.477 12.0874C139.477 12.9735 139.288 13.7427 138.91 14.3949C138.537 15.0426 137.986 15.5442 137.257 15.8995C136.529 16.2504 135.633 16.4258 134.572 16.4258H130.881V14.3477H134.235C134.855 14.3477 135.364 14.2622 135.759 14.0913C136.155 13.9158 136.448 13.6617 136.637 13.3288C136.83 12.9915 136.927 12.5777 136.927 12.0874C136.927 11.5971 136.83 11.1787 136.637 10.8324C136.443 10.4815 136.148 10.2161 135.753 10.0362C135.357 9.8518 134.846 9.75959 134.221 9.75959H131.927V21.4862H129.424ZM136.562 15.2248L139.983 21.4862H137.19L133.83 15.2248H136.562Z" fill="black"/>
<path d="M146.113 21.6893C145.074 21.6893 144.176 21.4734 143.421 21.0415C142.67 20.6052 142.092 19.989 141.687 19.1928C141.282 18.3922 141.08 17.4498 141.08 16.3658C141.08 15.2997 141.282 14.3641 141.687 13.5589C142.096 12.7493 142.667 12.1195 143.401 11.6697C144.134 11.2154 144.995 10.9883 145.985 10.9883C146.623 10.9883 147.226 11.0917 147.793 11.2986C148.364 11.5011 148.868 11.8159 149.304 12.2432C149.745 12.6706 150.091 13.2148 150.343 13.8761C150.595 14.5328 150.721 15.3154 150.721 16.2241V16.973H142.227V15.3267H148.38C148.375 14.8589 148.274 14.4428 148.076 14.0785C147.878 13.7096 147.602 13.4195 147.246 13.2081C146.896 12.9967 146.486 12.891 146.018 12.891C145.519 12.891 145.081 13.0124 144.703 13.2553C144.325 13.4937 144.03 13.8086 143.819 14.1999C143.612 14.5868 143.506 15.0118 143.502 15.4751V16.9123C143.502 17.515 143.612 18.0323 143.832 18.4641C144.053 18.8914 144.361 19.2198 144.757 19.4492C145.153 19.6741 145.616 19.7866 146.147 19.7866C146.502 19.7866 146.824 19.7371 147.111 19.6381C147.399 19.5347 147.649 19.384 147.86 19.1861C148.072 18.9882 148.232 18.743 148.339 18.4506L150.62 18.707C150.476 19.3098 150.202 19.836 149.797 20.2859C149.397 20.7312 148.884 21.0775 148.259 21.3249C147.633 21.5678 146.918 21.6893 146.113 21.6893Z" fill="black"/>
<path d="M157.308 21.6893C156.274 21.6893 155.385 21.4621 154.643 21.0078C153.905 20.5535 153.336 19.926 152.936 19.1253C152.54 18.3202 152.342 17.3936 152.342 16.3455C152.342 15.293 152.545 14.3641 152.949 13.5589C153.354 12.7493 153.926 12.1195 154.663 11.6697C155.405 11.2154 156.283 10.9883 157.295 10.9883C158.136 10.9883 158.88 11.1435 159.528 11.4538C160.18 11.7597 160.7 12.1938 161.087 12.756C161.473 13.3138 161.694 13.966 161.748 14.7127H159.413C159.319 14.2134 159.094 13.7973 158.739 13.4645C158.388 13.1271 157.918 12.9584 157.328 12.9584C156.829 12.9584 156.391 13.0934 156.013 13.3633C155.635 13.6287 155.34 14.011 155.129 14.5103C154.922 15.0096 154.818 15.6078 154.818 16.305C154.818 17.0112 154.922 17.6185 155.129 18.1268C155.336 18.6306 155.626 19.0196 155.999 19.294C156.377 19.5639 156.82 19.6989 157.328 19.6989C157.688 19.6989 158.01 19.6314 158.293 19.4964C158.581 19.357 158.822 19.1568 159.015 18.8959C159.209 18.6351 159.341 18.3179 159.413 17.9446H161.748C161.689 18.6778 161.473 19.3278 161.1 19.8945C160.727 20.4568 160.218 20.8976 159.575 21.217C158.932 21.5318 158.176 21.6893 157.308 21.6893Z" fill="black"/>
<path d="M168.342 21.6893C167.303 21.6893 166.406 21.4734 165.65 21.0415C164.899 20.6052 164.321 19.989 163.916 19.1928C163.511 18.3922 163.309 17.4498 163.309 16.3658C163.309 15.2997 163.511 14.3641 163.916 13.5589C164.326 12.7493 164.897 12.1195 165.63 11.6697C166.363 11.2154 167.225 10.9883 168.214 10.9883C168.853 10.9883 169.456 11.0917 170.022 11.2986C170.594 11.5011 171.098 11.8159 171.534 12.2432C171.975 12.6706 172.321 13.2148 172.573 13.8761C172.825 14.5328 172.951 15.3154 172.951 16.2241V16.973H164.456V15.3267H170.609C170.605 14.8589 170.504 14.4428 170.306 14.0785C170.108 13.7096 169.831 13.4195 169.476 13.2081C169.125 12.9967 168.716 12.891 168.248 12.891C167.749 12.891 167.31 13.0124 166.932 13.2553C166.554 13.4937 166.26 13.8086 166.048 14.1999C165.841 14.5868 165.736 15.0118 165.731 15.4751V16.9123C165.731 17.515 165.841 18.0323 166.062 18.4641C166.282 18.8914 166.59 19.2198 166.986 19.4492C167.382 19.6741 167.845 19.7866 168.376 19.7866C168.732 19.7866 169.053 19.7371 169.341 19.6381C169.629 19.5347 169.879 19.384 170.09 19.1861C170.301 18.9882 170.461 18.743 170.569 18.4506L172.85 18.707C172.706 19.3098 172.431 19.836 172.026 20.2859C171.626 20.7312 171.113 21.0775 170.488 21.3249C169.863 21.5678 169.148 21.6893 168.342 21.6893Z" fill="black"/>
<path d="M175.017 21.4862V11.1225H177.46V21.4862H175.017ZM176.245 9.65163C175.858 9.65163 175.525 9.52344 175.246 9.26705C174.968 9.00615 174.828 8.69354 174.828 8.32919C174.828 7.96035 174.968 7.64773 175.246 7.39133C175.525 7.13044 175.858 7 176.245 7C176.636 7 176.969 7.13044 177.244 7.39133C177.523 7.64773 177.662 7.96035 177.662 8.32919C177.662 8.69354 177.523 9.00615 177.244 9.26705C176.969 9.52344 176.636 9.65163 176.245 9.65163Z" fill="black"/>
<path d="M179.971 25.3732V11.1232H182.373V12.837H182.515C182.641 12.5851 182.818 12.3175 183.048 12.0341C183.277 11.7462 183.588 11.5011 183.979 11.2986C184.37 11.0917 184.87 10.9883 185.477 10.9883C186.278 10.9883 186.999 11.1929 187.643 11.6023C188.29 12.0071 188.803 12.6076 189.181 13.4038C189.563 14.1954 189.755 15.167 189.755 16.3185C189.755 17.4565 189.568 18.4236 189.195 19.2198C188.821 20.016 188.313 20.6232 187.67 21.0415C187.026 21.4599 186.298 21.669 185.484 21.669C184.89 21.669 184.397 21.5701 184.006 21.3721C183.615 21.1742 183.3 20.9358 183.061 20.6569C182.827 20.3736 182.645 20.1059 182.515 19.854H182.414V25.3732H179.971ZM182.366 16.305C182.366 16.9753 182.461 17.5623 182.65 18.066C182.843 18.5698 183.12 18.9634 183.48 19.2468C183.844 19.5257 184.285 19.6651 184.802 19.6651C185.342 19.6651 185.794 19.5212 186.158 19.2333C186.523 18.9409 186.797 18.5428 186.981 18.0391C187.17 17.5308 187.265 16.9528 187.265 16.305C187.265 15.6618 187.173 15.0905 186.988 14.5913C186.804 14.092 186.529 13.7006 186.165 13.4172C185.801 13.1339 185.346 12.9922 184.802 12.9922C184.28 12.9922 183.837 13.1294 183.473 13.4038C183.109 13.6781 182.832 14.0627 182.643 14.5575C182.459 15.0523 182.366 15.6348 182.366 16.305Z" fill="black"/>
<path d="M197.02 11.1197V13.0089H191.062V11.1197H197.02ZM192.533 8.63672H194.977V18.3661C194.977 18.6944 195.025 18.9463 195.124 19.1217C195.228 19.2927 195.363 19.4096 195.529 19.4726C195.696 19.5356 195.88 19.5671 196.082 19.5671C196.235 19.5671 196.375 19.5558 196.501 19.5333C196.631 19.5108 196.73 19.4906 196.798 19.4726L197.209 21.382C197.079 21.427 196.892 21.4765 196.649 21.5305C196.411 21.5845 196.118 21.6159 195.772 21.6249C195.16 21.6429 194.609 21.5507 194.119 21.3483C193.629 21.1414 193.24 20.822 192.952 20.3902C192.668 19.9584 192.529 19.4186 192.533 18.7709V8.63672Z" fill="black"/>
<path d="M207.107 13.8626L204.88 14.1055C204.817 13.8806 204.707 13.6691 204.549 13.4712C204.396 13.2733 204.19 13.1136 203.929 12.9922C203.668 12.8707 203.348 12.81 202.971 12.81C202.462 12.81 202.035 12.9202 201.689 13.1406C201.347 13.361 201.178 13.6467 201.183 13.9975C201.178 14.2989 201.288 14.544 201.513 14.7329C201.743 14.9219 202.12 15.077 202.647 15.1985L204.414 15.5763C205.395 15.7878 206.124 16.1229 206.601 16.5817C207.082 17.0405 207.325 17.641 207.329 18.3832C207.325 19.0354 207.134 19.6111 206.756 20.1104C206.382 20.6052 205.863 20.9921 205.197 21.2709C204.531 21.5498 203.767 21.6893 202.903 21.6893C201.635 21.6893 200.614 21.4239 199.84 20.8931C199.066 20.3578 198.605 19.6134 198.457 18.6598L200.838 18.4304C200.946 18.8982 201.176 19.2513 201.527 19.4897C201.877 19.7281 202.334 19.8473 202.896 19.8473C203.477 19.8473 203.942 19.7281 204.293 19.4897C204.648 19.2513 204.826 18.9567 204.826 18.6058C204.826 18.3089 204.711 18.0638 204.482 17.8704C204.257 17.677 203.906 17.5285 203.429 17.4251L201.662 17.054C200.668 16.8471 199.932 16.4985 199.455 16.0082C198.978 15.5134 198.742 14.8881 198.747 14.1324C198.742 13.4937 198.915 12.9404 199.266 12.4726C199.622 12.0003 200.114 11.636 200.744 11.3796C201.378 11.1187 202.109 10.9883 202.937 10.9883C204.151 10.9883 205.107 11.2469 205.804 11.7642C206.506 12.2815 206.94 12.9809 207.107 13.8626Z" fill="black"/>
</g>
<defs>
<clipPath id="clip0_682_2181">
<rect width="32" height="32" fill="white"/>
</clipPath>
<clipPath id="clip1_682_2181">
<rect width="164" height="19" fill="white" transform="translate(44 7)"/>
</clipPath>
</defs>
</svg>
