<svg width="208" height="32" viewBox="0 0 208 32" fill="none" xmlns="http://www.w3.org/2000/svg">
<g clip-path="url(#clip0_687_625)">
<path d="M0 3.30323C0 1.47891 1.43269 0 3.2 0H5.48571V11.3253H0.914285C0.409339 11.3253 0 10.9028 0 10.3815V3.30323Z" fill="#1766C0"/>
<path d="M19.2002 0C23.7447 0 27.4297 3.80287 27.4297 8.49396V31.1452H10.9717C7.94218 31.145 5.48633 28.6091 5.48633 25.4818V2.83266C5.48627 2.8109 5.48106 1.88367 5.0293 1.41734C4.1253 0.484253 3.13342 0.0124605 3.11133 0.00201612H5.48633V0H19.2002Z" fill="#2AB7F6"/>
<path d="M10.0566 6.60784C10.0566 6.08661 10.466 5.66406 10.9709 5.66406H20.1138C20.6187 5.66406 21.0281 6.08661 21.0281 6.60784C21.0281 7.12907 20.6187 7.55162 20.1138 7.55162H10.9709C10.466 7.55162 10.0566 7.12907 10.0566 6.60784Z" fill="#F7F7F8"/>
<path d="M10.0566 16.0454C10.0566 15.5241 10.466 15.1016 10.9709 15.1016H21.9424C22.4473 15.1016 22.8566 15.5241 22.8566 16.0454C22.8566 16.5665 22.4473 16.9892 21.9424 16.9892H10.9709C10.466 16.9892 10.0566 16.5665 10.0566 16.0454Z" fill="#F7F7F8"/>
<path d="M10.0566 11.3266C10.0566 10.8054 10.466 10.3828 10.9709 10.3828H16.4566C16.9616 10.3828 17.3709 10.8054 17.3709 11.3266C17.3709 11.8479 16.9616 12.2704 16.4566 12.2704H10.9709C10.466 12.2704 10.0566 11.8479 10.0566 11.3266Z" fill="#F7F7F8"/>
<path d="M29.2559 20.7617C30.7707 20.7617 31.999 22.0296 31.999 23.5933V25.9522C31.999 28.8189 29.7478 31.1436 26.9707 31.1438H14.6279C14.6156 31.1438 14.603 31.142 14.5908 31.1417H10.0547C10.0547 31.1417 11.004 31.142 11.8838 30.1982C12.3237 29.7263 12.7979 28.3101 12.7979 28.3101L12.7988 28.3111V22.6488C12.7991 21.6065 13.6182 20.7617 14.6279 20.7617H29.2559Z" fill="#1566C0"/>
</g>
<g clip-path="url(#clip1_687_625)">
<mask id="mask0_687_625" style="mask-type:luminance" maskUnits="userSpaceOnUse" x="44" y="8" width="164" height="19">
<path d="M208 8H44V27H208V8Z" fill="white"/>
</mask>
<g mask="url(#mask0_687_625)">
<path d="M53.608 13.082C53.4955 12.7177 53.3403 12.3916 53.1424 12.1037C52.949 11.8113 52.7151 11.5617 52.4407 11.3547C52.1708 11.1478 51.8605 10.9927 51.5096 10.8892C51.1588 10.7813 50.7764 10.7273 50.3626 10.7273C49.6204 10.7273 48.9592 10.9139 48.3789 11.2873C47.7987 11.6606 47.3421 12.2094 47.0093 12.9336C46.6809 13.6533 46.5167 14.5304 46.5167 15.565C46.5167 16.6085 46.6809 17.4924 47.0093 18.2167C47.3376 18.9409 47.7942 19.4919 48.3789 19.8698C48.9637 20.2431 49.6429 20.4298 50.4166 20.4298C51.1183 20.4298 51.7255 20.2948 52.2383 20.0249C52.7556 19.7551 53.1537 19.3727 53.4325 18.8779C53.7114 18.3786 53.8509 17.7938 53.8509 17.1236L54.4176 17.2113H50.6662V15.2546H56.2731V16.9144C56.2731 18.0975 56.0212 19.1208 55.5174 19.9845C55.0136 20.8481 54.3209 21.5138 53.4393 21.9816C52.5577 22.4449 51.5456 22.6766 50.4031 22.6766C49.1301 22.6766 48.0123 22.3909 47.0497 21.8197C46.0916 21.2439 45.3427 20.4275 44.8029 19.3705C44.2677 18.3089 44 17.0493 44 15.592C44 14.4764 44.1575 13.4801 44.4723 12.603C44.7917 11.7258 45.237 10.9814 45.8083 10.3697C46.3795 9.75343 47.0497 9.28563 47.8189 8.96626C48.5881 8.6424 49.4247 8.48047 50.3289 8.48047C51.0935 8.48047 51.8065 8.59292 52.4677 8.81783C53.1289 9.03823 53.7159 9.3531 54.2287 9.76243C54.746 10.1718 55.1711 10.6576 55.5039 11.2198C55.8368 11.7821 56.0549 12.4028 56.1584 13.082H53.608Z" fill="white"/>
<path d="M63.174 22.6893C62.1349 22.6893 61.2375 22.4734 60.4818 22.0415C59.7307 21.6052 59.1527 20.989 58.7478 20.1928C58.343 19.3922 58.1406 18.4498 58.1406 17.3658C58.1406 16.2997 58.343 15.3641 58.7478 14.5589C59.1571 13.7493 59.7284 13.1195 60.4616 12.6697C61.1948 12.2154 62.0562 11.9883 63.0458 11.9883C63.6845 11.9883 64.2872 12.0917 64.854 12.2986C65.4253 12.5011 65.929 12.8159 66.3654 13.2432C66.8062 13.6706 67.1525 14.2148 67.4044 14.8761C67.6563 15.5328 67.7823 16.3154 67.7823 17.2241V17.973H59.2876V16.3267H65.441C65.4365 15.8589 65.3353 15.4428 65.1374 15.0785C64.9395 14.7096 64.6628 14.4195 64.3075 14.2081C63.9566 13.9967 63.5473 13.891 63.0795 13.891C62.5802 13.891 62.1416 14.0124 61.7638 14.2553C61.386 14.4937 61.0913 14.8086 60.8799 15.1999C60.673 15.5868 60.5673 16.0118 60.5628 16.4751V17.9123C60.5628 18.515 60.673 19.0323 60.8934 19.4641C61.1138 19.8914 61.4219 20.2198 61.8178 20.4492C62.2136 20.6741 62.6769 20.7866 63.2077 20.7866C63.563 20.7866 63.8847 20.7371 64.1725 20.6381C64.4604 20.5347 64.7101 20.384 64.9215 20.1861C65.1329 19.9882 65.2926 19.743 65.4005 19.4506L67.6811 19.707C67.5371 20.3098 67.2627 20.836 66.8579 21.2859C66.4576 21.7312 65.9448 22.0775 65.3196 22.3249C64.6943 22.5678 63.9791 22.6893 63.174 22.6893Z" fill="white"/>
<path d="M72.2902 16.4144V22.4869H69.8477V12.1232H72.1822V13.8842H72.3037C72.5421 13.304 72.9221 12.8429 73.4439 12.5011C73.9702 12.1592 74.6202 11.9883 75.3938 11.9883C76.109 11.9883 76.732 12.1412 77.2628 12.4471C77.7981 12.7529 78.2119 13.196 78.5043 13.7763C78.8012 14.3565 78.9474 15.0605 78.9429 15.8881V22.4869H76.5004V16.266C76.5004 15.5733 76.3205 15.0312 75.9606 14.6399C75.6053 14.2486 75.1127 14.0529 74.483 14.0529C74.0557 14.0529 73.6756 14.1474 73.3427 14.3363C73.0144 14.5207 72.7557 14.7883 72.5668 15.1392C72.3824 15.49 72.2902 15.9151 72.2902 16.4144Z" fill="white"/>
<path d="M86.0139 22.6893C84.9748 22.6893 84.0774 22.4734 83.3218 22.0415C82.5706 21.6052 81.9926 20.989 81.5877 20.1928C81.1829 19.3922 80.9805 18.4498 80.9805 17.3658C80.9805 16.2997 81.1829 15.3641 81.5877 14.5589C81.9971 13.7493 82.5683 13.1195 83.3015 12.6697C84.0347 12.2154 84.8961 11.9883 85.8857 11.9883C86.5244 11.9883 87.1272 12.0917 87.6939 12.2986C88.2652 12.5011 88.769 12.8159 89.2053 13.2432C89.6461 13.6706 89.9925 14.2148 90.2443 14.8761C90.4962 15.5328 90.6222 16.3154 90.6222 17.2241V17.973H82.1275V16.3267H88.2809C88.2764 15.8589 88.1752 15.4428 87.9773 15.0785C87.7794 14.7096 87.5028 14.4195 87.1474 14.2081C86.7965 13.9967 86.3872 13.891 85.9194 13.891C85.4201 13.891 84.9816 14.0124 84.6037 14.2553C84.2259 14.4937 83.9313 14.8086 83.7198 15.1999C83.5129 15.5868 83.4072 16.0118 83.4027 16.4751V17.9123C83.4027 18.515 83.5129 19.0323 83.7333 19.4641C83.9537 19.8914 84.2619 20.2198 84.6577 20.4492C85.0535 20.6741 85.5168 20.7866 86.0476 20.7866C86.403 20.7866 86.7246 20.7371 87.0125 20.6381C87.3003 20.5347 87.55 20.384 87.7614 20.1861C87.9728 19.9882 88.1325 19.743 88.2404 19.4506L90.521 19.707C90.377 20.3098 90.1027 20.836 89.6978 21.2859C89.2975 21.7312 88.7847 22.0775 88.1595 22.3249C87.5342 22.5678 86.819 22.6893 86.0139 22.6893Z" fill="white"/>
<path d="M92.6895 22.4887V12.125H95.0578V13.8523H95.1657C95.3546 13.254 95.6785 12.793 96.1373 12.4691C96.6006 12.1408 97.1291 11.9766 97.7229 11.9766C97.8578 11.9766 98.0085 11.9833 98.1749 11.9968C98.3459 12.0058 98.4876 12.0216 98.6 12.044V14.2909C98.4966 14.2549 98.3324 14.2234 98.1075 14.1964C97.8871 14.1649 97.6734 14.1492 97.4665 14.1492C97.0212 14.1492 96.6209 14.2459 96.2655 14.4393C95.9146 14.6282 95.638 14.8913 95.4356 15.2287C95.2332 15.5661 95.132 15.9552 95.132 16.396V22.4887H92.6895Z" fill="white"/>
<path d="M103.019 22.696C102.362 22.696 101.771 22.5791 101.244 22.3452C100.722 22.1068 100.309 21.7559 100.003 21.2926C99.7015 20.8293 99.5508 20.258 99.5508 19.5788C99.5508 18.9941 99.6587 18.5105 99.8746 18.1282C100.09 17.7458 100.385 17.44 100.758 17.2106C101.132 16.9812 101.552 16.808 102.02 16.691C102.493 16.5696 102.981 16.4819 103.484 16.4279C104.092 16.3649 104.584 16.3087 104.962 16.2592C105.34 16.2052 105.614 16.1243 105.785 16.0163C105.961 15.9039 106.048 15.7307 106.048 15.4968V15.4563C106.048 14.948 105.898 14.5544 105.596 14.2756C105.295 13.9967 104.861 13.8572 104.294 13.8572C103.696 13.8572 103.221 13.9877 102.87 14.2486C102.524 14.5095 102.29 14.8176 102.169 15.1729L99.8881 14.8491C100.068 14.2193 100.365 13.6931 100.779 13.2702C101.193 12.8429 101.699 12.5235 102.297 12.3121C102.895 12.0962 103.556 11.9883 104.281 11.9883C104.78 11.9883 105.277 12.0467 105.772 12.1637C106.266 12.2806 106.719 12.4741 107.128 12.744C107.537 13.0093 107.866 13.3714 108.113 13.8302C108.365 14.2891 108.491 14.8626 108.491 15.5508V22.4869H106.143V21.0632H106.062C105.913 21.3511 105.704 21.621 105.434 21.8729C105.169 22.1203 104.834 22.3204 104.429 22.4734C104.029 22.6218 103.559 22.696 103.019 22.696ZM103.653 20.9013C104.143 20.9013 104.568 20.8046 104.928 20.6111C105.288 20.4132 105.565 20.1523 105.758 19.8285C105.956 19.5046 106.055 19.1515 106.055 18.7692V17.5479C105.979 17.6109 105.848 17.6694 105.664 17.7234C105.484 17.7773 105.281 17.8246 105.056 17.865C104.832 17.9055 104.609 17.9415 104.388 17.973C104.168 18.0045 103.977 18.0315 103.815 18.054C103.451 18.1034 103.125 18.1844 102.837 18.2969C102.549 18.4093 102.322 18.5668 102.155 18.7692C101.989 18.9671 101.906 19.2235 101.906 19.5383C101.906 19.9882 102.07 20.3278 102.398 20.5572C102.726 20.7866 103.145 20.9013 103.653 20.9013Z" fill="white"/>
<path d="M116.122 12.1197V14.0089H110.164V12.1197H116.122ZM111.635 9.63672H114.077V19.3661C114.077 19.6944 114.127 19.9463 114.226 20.1217C114.329 20.2927 114.464 20.4096 114.631 20.4726C114.797 20.5356 114.982 20.5671 115.184 20.5671C115.337 20.5671 115.476 20.5558 115.602 20.5333C115.733 20.5108 115.832 20.4906 115.899 20.4726L116.311 22.382C116.18 22.427 115.994 22.4765 115.751 22.5305C115.512 22.5845 115.22 22.6159 114.874 22.6249C114.262 22.6429 113.711 22.5507 113.221 22.3483C112.73 22.1414 112.341 21.822 112.053 21.3902C111.77 20.9584 111.63 20.4186 111.635 19.7709V9.63672Z" fill="white"/>
<path d="M122.64 22.6893C121.601 22.6893 120.704 22.4734 119.948 22.0415C119.197 21.6052 118.619 20.989 118.214 20.1928C117.809 19.3922 117.607 18.4498 117.607 17.3658C117.607 16.2997 117.809 15.3641 118.214 14.5589C118.623 13.7493 119.195 13.1195 119.928 12.6697C120.661 12.2154 121.522 11.9883 122.512 11.9883C123.151 11.9883 123.754 12.0917 124.32 12.2986C124.892 12.5011 125.395 12.8159 125.832 13.2432C126.272 13.6706 126.619 14.2148 126.871 14.8761C127.123 15.5328 127.249 16.3154 127.249 17.2241V17.973H118.754V16.3267H124.907C124.903 15.8589 124.802 15.4428 124.604 15.0785C124.406 14.7096 124.129 14.4195 123.774 14.2081C123.423 13.9967 123.014 13.891 122.546 13.891C122.046 13.891 121.608 14.0124 121.23 14.2553C120.852 14.4937 120.558 14.8086 120.346 15.1999C120.139 15.5868 120.034 16.0118 120.029 16.4751V17.9123C120.029 18.515 120.139 19.0323 120.36 19.4641C120.58 19.8914 120.888 20.2198 121.284 20.4492C121.68 20.6741 122.143 20.7866 122.674 20.7866C123.029 20.7866 123.351 20.7371 123.639 20.6381C123.927 20.5347 124.176 20.384 124.388 20.1861C124.599 19.9882 124.759 19.743 124.867 19.4506L127.147 19.707C127.003 20.3098 126.729 20.836 126.324 21.2859C125.924 21.7312 125.411 22.0775 124.786 22.3249C124.161 22.5678 123.445 22.6893 122.64 22.6893Z" fill="white"/>
<path d="M129.424 22.4862V8.66797H134.606C135.667 8.66797 136.558 8.85239 137.278 9.22124C138.002 9.59008 138.548 10.1074 138.917 10.7731C139.29 11.4343 139.477 12.2057 139.477 13.0874C139.477 13.9735 139.288 14.7427 138.91 15.3949C138.537 16.0426 137.986 16.5442 137.257 16.8995C136.529 17.2504 135.633 17.4258 134.572 17.4258H130.881V15.3477H134.235C134.855 15.3477 135.364 15.2622 135.759 15.0913C136.155 14.9158 136.448 14.6617 136.637 14.3288C136.83 13.9915 136.927 13.5777 136.927 13.0874C136.927 12.5971 136.83 12.1787 136.637 11.8324C136.443 11.4815 136.148 11.2161 135.753 11.0362C135.357 10.8518 134.846 10.7596 134.221 10.7596H131.927V22.4862H129.424ZM136.562 16.2248L139.983 22.4862H137.19L133.83 16.2248H136.562Z" fill="white"/>
<path d="M146.113 22.6893C145.074 22.6893 144.176 22.4734 143.421 22.0415C142.67 21.6052 142.092 20.989 141.687 20.1928C141.282 19.3922 141.08 18.4498 141.08 17.3658C141.08 16.2997 141.282 15.3641 141.687 14.5589C142.096 13.7493 142.667 13.1195 143.401 12.6697C144.134 12.2154 144.995 11.9883 145.985 11.9883C146.623 11.9883 147.226 12.0917 147.793 12.2986C148.364 12.5011 148.868 12.8159 149.304 13.2432C149.745 13.6706 150.091 14.2148 150.343 14.8761C150.595 15.5328 150.721 16.3154 150.721 17.2241V17.973H142.227V16.3267H148.38C148.375 15.8589 148.274 15.4428 148.076 15.0785C147.878 14.7096 147.602 14.4195 147.246 14.2081C146.896 13.9967 146.486 13.891 146.018 13.891C145.519 13.891 145.081 14.0124 144.703 14.2553C144.325 14.4937 144.03 14.8086 143.819 15.1999C143.612 15.5868 143.506 16.0118 143.502 16.4751V17.9123C143.502 18.515 143.612 19.0323 143.832 19.4641C144.053 19.8914 144.361 20.2198 144.757 20.4492C145.153 20.6741 145.616 20.7866 146.147 20.7866C146.502 20.7866 146.824 20.7371 147.111 20.6381C147.399 20.5347 147.649 20.384 147.86 20.1861C148.072 19.9882 148.232 19.743 148.339 19.4506L150.62 19.707C150.476 20.3098 150.202 20.836 149.797 21.2859C149.397 21.7312 148.884 22.0775 148.259 22.3249C147.633 22.5678 146.918 22.6893 146.113 22.6893Z" fill="white"/>
<path d="M157.308 22.6893C156.274 22.6893 155.385 22.4621 154.643 22.0078C153.905 21.5535 153.336 20.926 152.936 20.1253C152.54 19.3202 152.342 18.3936 152.342 17.3455C152.342 16.293 152.545 15.3641 152.949 14.5589C153.354 13.7493 153.926 13.1195 154.663 12.6697C155.405 12.2154 156.283 11.9883 157.295 11.9883C158.136 11.9883 158.88 12.1435 159.528 12.4538C160.18 12.7597 160.7 13.1938 161.087 13.756C161.473 14.3138 161.694 14.966 161.748 15.7127H159.413C159.319 15.2134 159.094 14.7973 158.739 14.4645C158.388 14.1271 157.918 13.9584 157.328 13.9584C156.829 13.9584 156.391 14.0934 156.013 14.3633C155.635 14.6287 155.34 15.011 155.129 15.5103C154.922 16.0096 154.818 16.6078 154.818 17.305C154.818 18.0112 154.922 18.6185 155.129 19.1268C155.336 19.6306 155.626 20.0196 155.999 20.294C156.377 20.5639 156.82 20.6989 157.328 20.6989C157.688 20.6989 158.01 20.6314 158.293 20.4964C158.581 20.357 158.822 20.1568 159.015 19.8959C159.209 19.6351 159.341 19.3179 159.413 18.9446H161.748C161.689 19.6778 161.473 20.3278 161.1 20.8945C160.727 21.4568 160.218 21.8976 159.575 22.217C158.932 22.5318 158.176 22.6893 157.308 22.6893Z" fill="white"/>
<path d="M168.342 22.6893C167.303 22.6893 166.406 22.4734 165.65 22.0415C164.899 21.6052 164.321 20.989 163.916 20.1928C163.511 19.3922 163.309 18.4498 163.309 17.3658C163.309 16.2997 163.511 15.3641 163.916 14.5589C164.326 13.7493 164.897 13.1195 165.63 12.6697C166.363 12.2154 167.225 11.9883 168.214 11.9883C168.853 11.9883 169.456 12.0917 170.022 12.2986C170.594 12.5011 171.098 12.8159 171.534 13.2432C171.975 13.6706 172.321 14.2148 172.573 14.8761C172.825 15.5328 172.951 16.3154 172.951 17.2241V17.973H164.456V16.3267H170.609C170.605 15.8589 170.504 15.4428 170.306 15.0785C170.108 14.7096 169.831 14.4195 169.476 14.2081C169.125 13.9967 168.716 13.891 168.248 13.891C167.749 13.891 167.31 14.0124 166.932 14.2553C166.554 14.4937 166.26 14.8086 166.048 15.1999C165.841 15.5868 165.736 16.0118 165.731 16.4751V17.9123C165.731 18.515 165.841 19.0323 166.062 19.4641C166.282 19.8914 166.59 20.2198 166.986 20.4492C167.382 20.6741 167.845 20.7866 168.376 20.7866C168.732 20.7866 169.053 20.7371 169.341 20.6381C169.629 20.5347 169.879 20.384 170.09 20.1861C170.301 19.9882 170.461 19.743 170.569 19.4506L172.85 19.707C172.706 20.3098 172.431 20.836 172.026 21.2859C171.626 21.7312 171.113 22.0775 170.488 22.3249C169.863 22.5678 169.148 22.6893 168.342 22.6893Z" fill="white"/>
<path d="M175.017 22.4862V12.1225H177.46V22.4862H175.017ZM176.245 10.6516C175.858 10.6516 175.525 10.5234 175.246 10.2671C174.968 10.0062 174.828 9.69354 174.828 9.32919C174.828 8.96035 174.968 8.64773 175.246 8.39133C175.525 8.13044 175.858 8 176.245 8C176.636 8 176.969 8.13044 177.244 8.39133C177.523 8.64773 177.662 8.96035 177.662 9.32919C177.662 9.69354 177.523 10.0062 177.244 10.2671C176.969 10.5234 176.636 10.6516 176.245 10.6516Z" fill="white"/>
<path d="M179.971 26.3732V12.1232H182.373V13.837H182.515C182.641 13.5851 182.818 13.3175 183.048 13.0341C183.277 12.7462 183.588 12.5011 183.979 12.2986C184.37 12.0917 184.87 11.9883 185.477 11.9883C186.278 11.9883 186.999 12.1929 187.643 12.6023C188.29 13.0071 188.803 13.6076 189.181 14.4038C189.563 15.1954 189.755 16.167 189.755 17.3185C189.755 18.4565 189.568 19.4236 189.195 20.2198C188.821 21.016 188.313 21.6232 187.67 22.0415C187.026 22.4599 186.298 22.669 185.484 22.669C184.89 22.669 184.397 22.5701 184.006 22.3721C183.615 22.1742 183.3 21.9358 183.061 21.6569C182.827 21.3736 182.645 21.1059 182.515 20.854H182.414V26.3732H179.971ZM182.366 17.305C182.366 17.9753 182.461 18.5623 182.65 19.066C182.843 19.5698 183.12 19.9634 183.48 20.2468C183.844 20.5257 184.285 20.6651 184.802 20.6651C185.342 20.6651 185.794 20.5212 186.158 20.2333C186.523 19.9409 186.797 19.5428 186.981 19.0391C187.17 18.5308 187.265 17.9528 187.265 17.305C187.265 16.6618 187.173 16.0905 186.988 15.5913C186.804 15.092 186.529 14.7006 186.165 14.4172C185.801 14.1339 185.346 13.9922 184.802 13.9922C184.28 13.9922 183.837 14.1294 183.473 14.4038C183.109 14.6781 182.832 15.0627 182.643 15.5575C182.459 16.0523 182.366 16.6348 182.366 17.305Z" fill="white"/>
<path d="M197.021 12.1197V14.0089H191.062V12.1197H197.021ZM192.534 9.63672H194.978V19.3661C194.978 19.6944 195.025 19.9463 195.124 20.1217C195.228 20.2927 195.364 20.4096 195.53 20.4726C195.697 20.5356 195.881 20.5671 196.083 20.5671C196.236 20.5671 196.376 20.5558 196.502 20.5333C196.632 20.5108 196.731 20.4906 196.799 20.4726L197.21 22.382C197.08 22.427 196.893 22.4765 196.65 22.5305C196.412 22.5845 196.119 22.6159 195.773 22.6249C195.161 22.6429 194.61 22.5507 194.12 22.3483C193.63 22.1414 193.24 21.822 192.952 21.3902C192.668 20.9584 192.53 20.4186 192.534 19.7709V9.63672Z" fill="white"/>
<path d="M207.107 14.8626L204.88 15.1055C204.817 14.8806 204.707 14.6691 204.549 14.4712C204.396 14.2733 204.19 14.1136 203.929 13.9922C203.668 13.8707 203.348 13.81 202.971 13.81C202.462 13.81 202.035 13.9202 201.689 14.1406C201.347 14.361 201.178 14.6467 201.183 14.9975C201.178 15.2989 201.288 15.544 201.513 15.7329C201.743 15.9219 202.12 16.077 202.647 16.1985L204.414 16.5763C205.395 16.7878 206.124 17.1229 206.601 17.5817C207.082 18.0405 207.325 18.641 207.329 19.3832C207.325 20.0354 207.134 20.6111 206.756 21.1104C206.382 21.6052 205.863 21.9921 205.197 22.2709C204.531 22.5498 203.767 22.6893 202.903 22.6893C201.635 22.6893 200.614 22.4239 199.84 21.8931C199.066 21.3578 198.605 20.6134 198.457 19.6598L200.838 19.4304C200.946 19.8982 201.176 20.2513 201.527 20.4897C201.877 20.7281 202.334 20.8473 202.896 20.8473C203.477 20.8473 203.942 20.7281 204.293 20.4897C204.648 20.2513 204.826 19.9567 204.826 19.6058C204.826 19.3089 204.711 19.0638 204.482 18.8704C204.257 18.677 203.906 18.5285 203.429 18.4251L201.662 18.054C200.668 17.8471 199.932 17.4985 199.455 17.0082C198.978 16.5134 198.742 15.8881 198.747 15.1324C198.742 14.4937 198.915 13.9404 199.266 13.4726C199.622 13.0003 200.114 12.636 200.744 12.3796C201.378 12.1187 202.109 11.9883 202.937 11.9883C204.151 11.9883 205.107 12.2469 205.804 12.7642C206.506 13.2815 206.94 13.9809 207.107 14.8626Z" fill="white"/>
</g>
</g>
<defs>
<clipPath id="clip0_687_625">
<rect width="32" height="32" fill="white"/>
</clipPath>
<clipPath id="clip1_687_625">
<rect width="164" height="19" fill="white" transform="translate(44 8)"/>
</clipPath>
</defs>
</svg>
